<svg id="图层_1" data-name="图层 1" xmlns="http://www.w3.org/2000/svg" viewBox="0 0 167.07 169.02"><defs><style>.cls-1{fill:#fff;}.cls-1,.cls-2{stroke:#000;stroke-miterlimit:10;stroke-width:2px;}.cls-2{fill:none;}</style></defs><title>icon-9</title><path class="cls-1" d="M17.62,87.34" transform="translate(-14.41 -18.57)"/><path class="cls-2" d="M180.48,72.53a52.78,52.78,0,0,1-10,31,7.73,7.73,0,0,1-10.81,11,54.45,54.45,0,0,1-32.15,10.95,53.41,53.41,0,0,1-24.21-5.79A14.94,14.94,0,0,0,91,122.2L40.7,169.12a24.06,24.06,0,0,1-8.2,12.4c-5,3.88-13.46,6.81-16.16,3.87s.84-11.08,5.36-15.77A23.15,23.15,0,0,1,35.63,163l47.8-46.5a13.08,13.08,0,0,0,2.44-6.9A12.27,12.27,0,0,0,84,102.69a52.72,52.72,0,0,1-.25-59.92,8.43,8.43,0,0,1,11.4-12.16,52.93,52.93,0,0,1,32.34-11c19.81.16,32.84,11.85,37.21,16.27C169.26,40.43,180.32,53.28,180.48,72.53Z" transform="translate(-14.41 -18.57)"/><path class="cls-2" d="M151.12,26.15a16.3,16.3,0,0,1,22.22,21" transform="translate(-14.41 -18.57)"/></svg>