<svg id="图层_1" data-name="图层 1" xmlns="http://www.w3.org/2000/svg" viewBox="0 0 197.17 197.17"><defs><style>.cls-1,.cls-2{fill:none;stroke:#000;stroke-miterlimit:10;}.cls-1{stroke-width:3px;}</style></defs><title>icon-4</title><circle class="cls-1" cx="98.59" cy="98.59" r="97.09"/><path class="cls-1" d="M39.2,99.9c0,4,.48,26,15.29,35a25,25,0,0,0,5.42,2.47h78.9a13.14,13.14,0,0,0,4.93-.49c9.65-2.93,15.43-17.68,15.78-36.49Z" transform="translate(-1.41 -1.41)"/><path class="cls-1" d="M7.66,126.51c7.39-7.1,12-7.72,14.79-6.9,5,1.42,5.75,7.1,10.36,7.4,5.34.35,7.8-7.17,12.67-6.32,3.58.62,3.36,4.87,7.06,5.83,5.52,1.43,9.05-7.21,15.78-6.41,4.54.54,4.83,4.7,9.37,4.93,5.25.26,6.34-5.22,12.27-5.72,5.17-.43,6,3.62,12.39,3.74,5.25.11,5.8-2.59,11.34-2.47,5.36.12,5.67,2.66,10.85,3,6.71.38,7.64-3.79,13.81-3.45,6.39.35,7.12,4.93,13.46,5,5.29,0,5.53-3.17,11.2-3.47,7.26-.39,8.92,4.73,14.79,3.45,4.5-1,6-4.51,9.86-3.95a8.42,8.42,0,0,1,4.93,3" transform="translate(-1.41 -1.41)"/><path class="cls-1" d="M53.1,100l8-18.08h79.51l5.67,17.87" transform="translate(-1.41 -1.41)"/><path class="cls-1" d="M87.82,81.18l4.82-15.1h35.73l3.77,14.75" transform="translate(-1.41 -1.41)"/><rect class="cls-2" x="96.18" y="71.66" width="3.08" height="3.08"/><rect class="cls-2" x="103.23" y="71.66" width="3.08" height="3.08"/><rect class="cls-2" x="110.56" y="71.66" width="3.08" height="3.08"/><rect class="cls-2" x="118.2" y="71.66" width="3.08" height="3.08"/></svg>