<svg id="图层_1" data-name="图层 1" xmlns="http://www.w3.org/2000/svg" viewBox="0 0 197.17 197.17"><defs><style>.cls-1{fill:none;stroke:#000;stroke-miterlimit:10;stroke-width:3px;}</style></defs><title>icon-3</title><circle class="cls-1" cx="98.59" cy="98.59" r="97.09"/><path class="cls-1" d="M39.2,99.9c0,4,.48,26,15.29,35a25,25,0,0,0,5.42,2.47h78.9a13.14,13.14,0,0,0,4.93-.49c9.65-2.93,15.43-17.68,15.78-36.49Z" transform="translate(-1.41 -1.41)"/><path class="cls-1" d="M7.66,126.51c7.39-7.1,12-7.72,14.79-6.9,5,1.42,5.75,7.1,10.36,7.4,5.34.35,7.8-7.17,12.67-6.32,3.58.62,3.36,4.87,7.06,5.83,5.52,1.43,9.05-7.21,15.78-6.41,4.54.54,4.83,4.7,9.37,4.93,5.25.26,6.34-5.22,12.27-5.72,5.17-.43,6,3.62,12.39,3.74,5.25.11,5.8-2.59,11.34-2.47,5.36.12,5.67,2.66,10.85,3,6.71.38,7.64-3.79,13.81-3.45,6.39.35,7.12,4.93,13.46,5,5.29,0,5.53-3.17,11.2-3.47,7.26-.39,8.92,4.73,14.79,3.45,4.5-1,6-4.51,9.86-3.95a8.42,8.42,0,0,1,4.93,3" transform="translate(-1.41 -1.41)"/><path class="cls-1" d="M100.4,63.15l26.09.25c3-3.13,3.28-4.37,3-4.93-.46-.8-2.09-.27-4-1.66-.68-.51-1.41-1-1.46-1.79-.11-1.91,4.5-2.87,4.44-4.44,0-.69-1-1.55-4.42-2.47H98.88l.54,50.94" transform="translate(-1.41 -1.41)"/></svg>