<svg id="图层_1" data-name="图层 1" xmlns="http://www.w3.org/2000/svg" viewBox="0 0 169.2 129.27"><defs><style>.cls-1{fill:none;stroke:#000;stroke-miterlimit:10;stroke-width:2px;}</style></defs><title>icon_10</title><g id="图层_2" data-name="图层 2"><path class="cls-1" d="M143,30c-.4-.7-1.7-.9-4.5-1.5-.7-.1-2-.4-3.7-.7a77.2,77.2,0,0,0-19.1-8.6,82.46,82.46,0,0,0-31-2.6c-7.2.7-16.1,1.6-26.2,7.1A58.11,58.11,0,0,0,40.2,39.6c-.7,1.6-1.4,3.2-2,4.8a10.5,10.5,0,0,0-4.3.1A11,11,0,0,0,31,45.6c-3.5,2-4.7,6.3-4.9,7.2a36.81,36.81,0,0,0-5.8,0c-3.5.3-5.4.4-7.1,1.6-3,2-3.6,5.8-3.8,7.4.5-.1,1.3-.1,2.1-.2a58.84,58.84,0,0,1,6.4-.2,88.09,88.09,0,0,1,14.2,1.8c22.2,4.4,27.5,4.4,37,9.2,1.4.7,2.5,1.3,3.2,1.7-.1.6-.3,1.6-.6,2.8-.6,2.6-1.6,7-3.3,12.1-.9,2.6-1.5,4.1-3,4.8a5.6,5.6,0,0,1-2.6.4C56.7,93.5,50.5,90,50.5,90c-.9-.5-6.4-1.7-17.6-4.2-12.4-2.7-14.5-3-16.8-3.3a79.05,79.05,0,0,0-13.4-.3c-.6.6-3.3,3.5-2.6,6.9.1.5.3,2,2.7,4.2a38,38,0,0,0,7.9,5.6c-1.4,4.2-2.8,8.2-4.1,11.9-2.2,6.4-5.4,10.1-4.1,11.5.9.9,2.7,0,5.7-.5,3.6-.6,6.5-.1,13.3,1.7,13.5,3.5,20.2,5.2,27.8,8,10.3,3.9,12.5,5.6,22.6,8.8a77.18,77.18,0,0,0,15.3,2.9c8.9.8,11.4-.6,12.5-1.3,4.7-3,5.8-8.8,6.1-10.8q3.75-9,7.2-19.8c2.4-7.4,4.2-14.5,5.7-21,6.8.6,8.2,1.1,8.2,1.5,0,.6-4.5.1-7.7,2.7-2.7,2.2-3,5.5-3.9,9.6a75,75,0,0,1-5.3,16,30.65,30.65,0,0,0,8.7,8.8,31.7,31.7,0,0,0,18.1,5.1,40.14,40.14,0,0,0,19.8-6.2,11.78,11.78,0,0,0,2-1.7c1-1.4.7-2.1,1.6-2.9s1.8-.3,3.3-.9a6.14,6.14,0,0,0,2.7-2.8c3.1-5.3-2.1-31.2-2.1-31.2-3-15.1-1.2-16.5-4.9-27.9-2.3-6.8-4-11.9-8.4-17.8a46.24,46.24,0,0,0-8.9-8.9C142.6,32.9,143.6,31.1,143,30Z" transform="translate(1.01 -15.17)"/><path class="cls-1" d="M4.7,81.2C6.9,75,9.2,68.8,11.4,62.6" transform="translate(1.01 -15.17)"/><path class="cls-1" d="M118.4,88.9c.9-7.3-.2-13.3-2.2-16.3a36.69,36.69,0,0,0-2.8-3.4,34.08,34.08,0,0,0-3.8-3.2C94,55.2,54.9,47.4,54.9,47.4c-3.7-.7-9.2-1.8-15.9-3" transform="translate(1.01 -15.17)"/><path class="cls-1" d="M3.3,122.6a4.78,4.78,0,0,0-.4,3.4c.2.6.8,2.6,8.9,5.8,4.1,1.6,6.2,2.4,9.5,2.7,2.9.3,5.5.5,8.2-.9a11.6,11.6,0,0,0,5.2-5.9" transform="translate(1.01 -15.17)"/></g></svg>