<svg id="图层_1" data-name="图层 1" xmlns="http://www.w3.org/2000/svg" viewBox="0 0 184.52 175.46"><defs><style>.cls-1{fill:#fff;}.cls-1,.cls-2{stroke:#000;stroke-miterlimit:10;stroke-width:3px;}.cls-2{fill:#f9f90b;}</style></defs><title>icon-6</title><path class="cls-1" d="M60.94,14.48c14.81-5.22,25.25,20,53.6,21.25,18.1.8,25.23-9,34.29-3.38,9.88,6.11,4.67,19.76,11.11,42.5,9.11,32.18,27.39,32.5,30.42,57,2.87,23.2-10.09,50.79-26.08,54.09-15.37,3.17-21.95-18.51-44.91-19.32-19.88-.7-23.84,15.24-44.91,17.39-31.5,3.21-64.66-28.13-60.85-41C16.31,133.79,36.9,136,38.72,127,41,115.87,10.29,108.48,9.26,91.26,8.52,78.74,24.39,76.58,40.65,51.18,54.68,29.28,51.16,17.92,60.94,14.48Z" transform="translate(-7.74 -12.27)"/><circle class="cls-2" cx="90.4" cy="89.52" r="28.35"/></svg>